# xmcd
#
# Track frame offsets: 
#        150
#        14584
#        28330
#        42830
#        63852
#        78150
#        91035
#        111027
#        122150
#        138357
#        155110
#        174932
#        200335
#
# Disc length: 2933 seconds
#
# Revision: 0
# Processed by: cddbd v1.5.1PL0 Copyright (c) Steve Scherf et al.
# Submitted via: ExactAudioCopy v0.95a3
#
DISCID=a30b730d
DTITLE=Petra Welteroth plus Drei - ... zuf‰llig Absicht
DYEAR=1900
DGENRE=Blues
TTITLE0=Blickkontakt
TTITLE1=Grenzenlos
TTITLE2=Rat' mal
TTITLE3=Laﬂ mich
TTITLE4=Liebeslied
TTITLE5=He bew‰ch sech nix
TTITLE6=Ich will was werden
TTITLE7=Verz‰ll nix
TTITLE8=Du kannst es
TTITLE9=In dem Moment
TTITLE10=Sehnsucht
TTITLE11=N‰he
TTITLE12=Jetzt noch
EXTD=
EXTT0=
EXTT1=
EXTT2=
EXTT3=
EXTT4=
EXTT5=
EXTT6=
EXTT7=
EXTT8=
EXTT9=
EXTT10=
EXTT11=
EXTT12=
PLAYORDER=
